<?xml version="1.0" standalone="no"?>
<!DOCTYPE svg PUBLIC "-//W3C//DTD SVG 20010904//EN"
 "http://www.w3.org/TR/2001/REC-SVG-20010904/DTD/svg10.dtd">
<svg version="1.0" xmlns="http://www.w3.org/2000/svg"
 width="1024.000000pt" height="1024.000000pt" viewBox="0 0 1024.000000 1024.000000"
 preserveAspectRatio="xMidYMid meet">
<metadata>
Created by potrace 1.16, written by Peter Selinger 2001-2019
</metadata>
<g transform="translate(0.000000,1024.000000) scale(0.100000,-0.100000)"
fill="#FFFFFF" stroke="none">
<path d="M3800 9876 c0 -7 8 -20 17 -27 61 -51 217 -351 282 -544 45 -133 85
-291 77 -304 -3 -4 -28 -11 -56 -14 -69 -8 -118 -34 -147 -76 -14 -20 -124
-205 -245 -411 -122 -206 -295 -501 -386 -655 -231 -390 -232 -391 -232 -450
0 -27 7 -75 15 -105 9 -30 90 -345 181 -700 118 -464 172 -655 189 -681 32
-49 101 -82 158 -77 23 2 265 62 537 132 272 70 662 170 865 221 929 235 907
228 956 274 48 47 66 106 52 169 -6 26 -56 225 -112 442 -56 217 -134 519
-172 669 -72 281 -90 330 -131 367 -20 19 -730 443 -901 538 -37 21 -72 46
-77 57 -6 10 -27 65 -46 121 -73 212 -223 479 -367 657 -79 97 -194 212 -288
287 -41 32 -91 73 -112 91 -40 35 -57 41 -57 19z m384 -1039 c66 -66 39 -561
-49 -895 -50 -188 -122 -376 -220 -572 -84 -168 -215 -400 -243 -433 -11 -13
-13 -20 -4 -29 14 -14 35 -6 255 103 158 79 217 102 217 83 0 -11 -325 -719
-446 -972 -47 -98 -78 -152 -86 -150 -7 3 -18 20 -25 39 -19 53 -353 1364
-353 1385 0 11 55 111 121 224 67 113 158 268 204 345 344 585 509 863 523
878 22 25 78 22 106 -6z m829 -488 c150 -89 337 -200 415 -247 111 -66 147
-92 158 -116 7 -17 65 -236 129 -487 63 -251 140 -551 170 -665 30 -115 55
-226 55 -246 0 -49 -10 -53 -230 -111 -402 -106 -1042 -267 -1060 -267 -11 0
-20 6 -20 14 0 12 100 294 175 491 19 50 75 203 125 340 51 138 130 352 176
477 46 125 84 234 84 243 0 8 -6 15 -14 15 -8 0 -88 -49 -178 -109 -197 -131
-274 -175 -282 -162 -4 6 0 50 8 98 41 233 45 557 11 777 -13 89 -13 116 1
116 3 0 128 -73 277 -161z"/>
<path d="M5184 8996 c-8 -20 25 -142 41 -156 7 -6 68 -17 136 -25 743 -87
1473 -394 2067 -870 235 -189 530 -488 714 -727 122 -158 122 -158 160 -157
46 0 122 31 126 51 4 20 -66 119 -200 285 -342 425 -749 774 -1228 1055 -278
163 -672 329 -979 414 -226 62 -491 110 -768 139 -52 6 -64 4 -69 -9z"/>
<path d="M2935 8557 c-619 -320 -1116 -739 -1528 -1289 -318 -425 -596 -1012
-712 -1502 -58 -245 -124 -653 -109 -677 15 -25 146 10 170 46 9 14 20 62 25
107 44 402 178 858 368 1253 320 663 819 1239 1421 1640 180 120 356 221 504
291 58 27 108 56 111 64 7 23 -39 155 -56 157 -8 2 -95 -39 -194 -90z"/>
<path d="M9352 6959 c-203 -26 -345 -116 -410 -257 -21 -47 -27 -75 -30 -158
-5 -121 18 -227 74 -340 62 -126 132 -183 433 -355 98 -56 184 -113 213 -141
63 -61 109 -157 115 -243 5 -58 4 -65 -20 -89 -36 -35 -85 -35 -121 0 -25 26
-55 107 -88 243 -8 30 -21 59 -31 65 -22 14 -336 -64 -351 -86 -11 -19 54
-266 94 -353 51 -113 128 -197 217 -237 60 -27 214 -36 306 -18 160 31 299
124 348 232 22 49 24 66 24 208 -1 125 -5 172 -23 242 -58 233 -159 356 -401
489 -180 98 -315 184 -357 224 -44 42 -71 108 -59 146 18 56 104 80 144 40 16
-16 51 -110 51 -139 0 -31 29 -29 173 8 200 52 217 58 217 79 0 24 -56 165
-92 233 -41 78 -129 159 -198 185 -69 26 -147 33 -228 22z"/>
<path d="M8720 6782 c-8 -3 -168 -45 -355 -92 -329 -84 -340 -88 -343 -112 -2
-14 55 -250 126 -524 71 -275 178 -692 238 -928 66 -258 114 -431 122 -434 18
-6 754 186 770 202 10 9 4 44 -28 171 -23 88 -46 166 -53 173 -10 10 -50 3
-199 -35 -145 -37 -190 -45 -199 -36 -14 14 -96 314 -105 385 -6 47 -6 47 47
62 30 8 106 28 169 44 78 20 116 34 118 44 3 17 -72 326 -82 335 -3 4 -83 -13
-176 -37 -122 -31 -174 -40 -182 -32 -13 13 -88 297 -88 335 0 19 7 30 23 37
30 13 272 80 289 80 8 0 22 6 33 13 17 13 17 20 -20 168 -21 85 -42 162 -47
172 -9 17 -30 21 -58 9z"/>
<path d="M7726 6524 c-88 -24 -163 -47 -167 -51 -5 -5 16 -101 47 -213 79
-296 144 -556 144 -582 0 -20 -2 -20 -15 -8 -8 8 -91 177 -185 375 -94 198
-177 366 -183 373 -10 10 -30 7 -97 -12 -47 -14 -128 -36 -180 -49 -78 -21
-96 -29 -98 -45 -2 -12 10 -70 26 -129 36 -131 151 -577 323 -1253 128 -504
128 -504 38 -680 -50 -96 -97 -181 -103 -188 -7 -7 -85 -37 -174 -67 -184 -61
-202 -70 -202 -92 0 -20 8 -18 185 46 77 28 143 50 148 51 16 0 5 -35 -42
-128 -29 -57 -65 -112 -88 -133 -96 -89 -190 -143 -241 -137 -22 2 -27 7 -24
28 4 44 62 105 62 66 0 -23 27 -20 35 4 10 33 -4 60 -31 60 -18 0 -49 -23
-108 -82 -88 -89 -193 -158 -238 -158 -24 0 -28 4 -28 29 0 24 6 31 32 40 43
15 68 40 68 68 0 19 -5 23 -31 23 -25 0 -40 -9 -68 -42 -127 -149 -272 -278
-311 -278 -26 0 -32 29 -20 85 14 65 22 76 100 160 124 134 301 386 385 548
42 82 42 82 122 89 93 7 218 47 283 88 130 83 194 209 193 380 0 103 -5 129
-98 485 -41 154 -99 377 -130 495 -86 328 -144 429 -290 501 -126 62 -306 50
-474 -31 -182 -88 -260 -242 -232 -458 6 -46 58 -265 115 -486 58 -220 118
-454 135 -519 50 -192 134 -328 249 -401 42 -26 42 -26 -12 -99 -118 -157
-238 -372 -330 -593 -43 -102 -53 -117 -130 -196 -46 -47 -103 -94 -128 -106
-156 -76 -187 53 -55 226 60 77 125 135 185 166 56 28 69 43 54 58 -6 6 -24 2
-52 -12 -54 -28 -104 -24 -108 8 -3 17 9 36 41 68 49 48 70 54 89 24 23 -36
58 -18 38 20 -17 32 -47 43 -83 30 -43 -14 -104 -76 -118 -118 -10 -30 -8 -38
10 -63 11 -15 21 -31 21 -35 0 -4 -28 -37 -63 -73 -131 -139 -170 -269 -102
-337 52 -52 165 -15 266 86 62 61 79 67 79 25 0 -29 24 -55 51 -55 38 0 102
42 185 122 84 81 84 81 107 60 13 -12 34 -22 48 -22 36 0 142 53 189 96 41 38
41 38 64 9 20 -25 27 -27 68 -23 58 7 122 37 177 84 23 20 44 34 47 31 3 -3
-23 -79 -59 -169 -90 -226 -114 -305 -99 -320 18 -18 30 -1 47 65 23 89 158
424 242 604 82 174 78 169 172 193 48 13 91 0 91 -28 0 -8 -25 -50 -56 -93
-51 -73 -63 -109 -35 -109 6 0 38 43 72 95 34 52 66 95 70 95 5 0 13 -9 19
-19 11 -21 -6 -57 -104 -226 -25 -43 -53 -101 -62 -127 -15 -45 -15 -51 1 -74
14 -22 22 -25 51 -21 50 8 114 59 248 198 88 90 121 118 127 108 5 -8 9 -17 9
-21 0 -4 11 -10 24 -14 32 -8 89 22 154 81 53 47 53 47 78 20 23 -25 30 -27
70 -21 48 6 111 34 162 73 31 23 35 24 51 9 10 -9 24 -16 32 -16 23 0 74 42
116 93 43 54 63 59 63 19 0 -82 92 -66 218 37 52 42 66 50 82 41 12 -7 27 -7
45 0 50 19 49 10 -3 -38 -59 -55 -70 -92 -26 -92 27 0 72 40 125 111 17 22 69
59 148 103 110 63 147 96 106 96 -15 0 -151 -74 -207 -112 -17 -12 -36 -16
-51 -13 -13 4 -42 0 -65 -8 -60 -21 -68 -8 -26 42 27 33 54 41 54 16 0 -25 29
-17 36 11 4 17 1 31 -9 41 -24 25 -69 0 -130 -70 -64 -73 -200 -177 -232 -177
-35 0 -37 28 -10 117 10 33 -23 44 -43 15 -9 -14 -25 -22 -44 -22 -43 0 -85
-25 -164 -99 -84 -79 -168 -131 -223 -138 -40 -6 -41 -5 -41 25 0 19 10 42 25
59 23 26 26 27 36 10 8 -14 14 -16 25 -6 33 27 4 85 -36 71 -8 -2 -46 -37 -85
-76 -79 -81 -170 -153 -200 -158 -30 -5 -30 32 -1 91 31 59 32 71 9 71 -11 0
-30 -21 -48 -51 -37 -64 -316 -348 -367 -374 -29 -15 -40 -17 -49 -8 -15 15 4
61 69 173 105 179 121 230 82 265 -41 37 -15 74 60 83 39 5 55 11 55 22 0 11
-11 15 -47 13 -48 -1 -48 -1 -48 38 0 32 -4 39 -19 39 -25 0 -74 -41 -101 -85
-17 -28 -30 -36 -75 -46 -31 -7 -58 -9 -61 -6 -4 3 20 57 52 119 32 62 69 134
81 160 13 25 29 51 36 56 7 5 77 26 157 47 80 21 151 44 158 50 11 10 11 21
-2 66 -34 118 -187 716 -193 754 -5 34 -4 38 8 28 15 -12 118 -217 287 -572
53 -112 104 -209 114 -214 20 -13 348 70 355 91 3 7 -11 75 -30 150 -20 75
-77 297 -128 492 -50 195 -144 557 -208 805 -86 334 -120 450 -131 451 -8 1
-87 -18 -174 -42z m-1148 -670 c12 -8 28 -27 36 -42 27 -52 276 -1048 276
-1103 0 -67 -26 -99 -81 -99 -49 0 -82 38 -108 128 -17 56 -107 398 -238 902
-27 104 -26 159 4 192 34 38 76 47 111 22z m102 -1622 c0 -35 -167 -299 -307
-484 -72 -96 -90 -115 -99 -105 -8 7 126 262 198 377 104 167 154 230 183 230
17 0 25 -5 25 -18z m871 -95 c-16 -16 -26 0 -10 19 9 11 15 12 17 4 2 -6 -1
-17 -7 -23z m923 -78 c-27 -27 -52 -49 -56 -49 -21 0 -3 32 44 76 67 63 78 40
12 -27z"/>
<path d="M5691 6000 c-79 -22 -148 -43 -153 -48 -8 -8 148 -632 378 -1514 72
-277 102 -379 114 -383 15 -5 335 77 347 89 3 3 -8 56 -25 118 -17 62 -45 165
-61 228 -16 63 -70 270 -120 460 -49 190 -131 505 -181 700 -50 195 -93 363
-96 373 -8 25 -38 21 -203 -23z"/>
<path d="M4653 5736 c-84 -23 -158 -47 -164 -53 -9 -9 -6 -55 9 -185 29 -240
34 -311 23 -327 -23 -34 -65 40 -171 304 -29 72 -58 136 -66 144 -11 12 -38 8
-185 -30 -94 -24 -173 -49 -175 -54 -4 -10 60 -154 281 -630 112 -242 100
-169 130 -794 19 -393 14 -420 -35 -226 -13 52 -29 95 -34 95 -6 0 -91 -20
-189 -45 -98 -25 -187 -43 -197 -40 -19 6 -29 37 -93 288 -30 120 -31 129 -15
141 10 7 82 30 161 50 79 21 150 42 158 46 11 8 7 37 -25 167 -21 87 -44 163
-50 170 -8 9 -44 3 -159 -27 -82 -22 -159 -40 -172 -40 -21 0 -27 9 -43 63
-40 131 -76 297 -66 307 5 5 81 28 169 51 88 23 166 48 174 55 12 11 9 34 -23
161 -49 192 -45 180 -60 186 -7 3 -80 -13 -162 -35 -82 -22 -243 -64 -359 -93
-117 -29 -213 -59 -218 -67 -6 -9 30 -163 101 -438 61 -234 143 -551 182 -705
40 -154 98 -383 130 -509 33 -126 63 -233 69 -239 6 -6 93 12 253 53 134 35
388 100 566 146 177 46 327 86 332 89 15 9 12 87 -10 305 -27 262 -35 420 -23
420 11 0 25 -29 115 -235 149 -341 171 -390 185 -405 12 -13 34 -10 190 30 96
25 177 50 180 56 2 6 -74 170 -170 365 -319 650 -285 547 -312 931 -13 183
-26 385 -30 448 -8 136 -11 150 -33 149 -9 -1 -86 -20 -169 -43z"/>
<path d="M2805 5253 c-88 -24 -164 -48 -169 -53 -5 -5 4 -57 24 -127 18 -65
61 -228 96 -363 90 -343 86 -391 -14 -181 -214 451 -294 616 -303 621 -14 9
-361 -87 -371 -102 -4 -7 -5 -19 -3 -27 13 -33 219 -829 376 -1451 55 -217
106 -401 114 -409 11 -11 28 -9 111 13 240 63 239 63 242 82 1 11 -23 114 -53
229 -130 497 -157 607 -146 618 10 10 32 -34 216 -424 45 -96 99 -208 119
-247 37 -73 37 -73 -11 -132 -100 -123 -268 -419 -333 -585 -35 -88 -61 -119
-118 -134 -47 -14 -149 -14 -157 -1 -11 18 -36 11 -78 -23 -23 -19 -60 -44
-82 -57 -22 -12 -68 -41 -102 -63 -61 -38 -64 -39 -88 -23 -14 9 -59 30 -101
46 -42 16 -85 37 -95 46 -40 36 -18 110 55 191 90 100 246 180 302 154 19 -8
24 -18 24 -46 0 -35 -30 -108 -50 -120 -5 -3 -10 -15 -10 -26 0 -66 89 47 97
124 6 55 -9 85 -52 103 -43 18 -82 10 -165 -32 -147 -74 -259 -205 -260 -302
0 -51 49 -96 145 -130 47 -17 81 -35 83 -44 2 -9 -20 -29 -55 -51 -77 -47
-116 -88 -111 -118 4 -29 36 -36 93 -19 76 23 145 94 145 151 0 22 12 34 70
69 39 23 73 46 76 51 12 21 34 8 34 -20 0 -32 22 -61 46 -61 35 0 61 46 66
120 3 35 3 35 69 32 44 -3 78 2 104 12 20 9 41 16 46 16 4 0 5 -22 2 -48 -16
-137 86 -129 237 18 68 65 74 69 91 54 25 -23 52 -11 98 44 40 47 40 47 52 14
10 -28 15 -32 47 -32 41 0 123 43 161 84 30 32 43 33 56 4 8 -18 20 -24 52
-26 48 -4 117 27 200 89 29 21 55 39 58 39 3 0 10 -11 15 -25 19 -49 87 -30
187 52 41 34 63 36 63 8 0 -8 9 -19 19 -25 16 -8 26 -5 48 14 23 20 29 34 33
82 5 58 5 58 90 59 47 1 94 4 105 6 17 3 20 -1 20 -31 0 -48 23 -49 59 -1 45
62 153 164 165 157 6 -4 11 -23 11 -42 0 -47 16 -74 43 -74 25 0 116 50 136
74 15 17 41 22 41 7 0 -19 32 -41 58 -41 42 0 142 52 199 104 46 41 55 46 73
36 16 -8 30 -9 52 -1 17 6 34 11 37 11 3 0 -19 -24 -48 -54 -55 -56 -63 -86
-21 -86 32 0 65 26 102 83 30 44 55 64 167 131 72 43 131 83 131 88 0 26 -39
13 -135 -46 -77 -47 -117 -66 -141 -66 -19 0 -50 -6 -69 -14 -52 -22 -60 -5
-19 43 28 34 44 39 44 16 0 -24 29 -17 42 10 13 28 -2 55 -31 55 -28 0 -77
-36 -100 -74 -25 -40 -152 -146 -212 -176 -21 -11 -49 -20 -63 -20 -54 0 -44
48 15 74 50 22 72 62 45 81 -26 19 -43 10 -111 -60 -59 -60 -159 -135 -181
-135 -6 0 -14 23 -17 50 -8 63 -12 70 -45 70 -18 0 -42 -16 -79 -52 -29 -28
-55 -49 -58 -46 -7 7 30 84 45 93 5 3 10 15 10 26 0 39 -34 15 -71 -51 -46
-82 -78 -102 -175 -108 -62 -4 -78 -2 -94 13 -19 17 -22 15 -114 -73 -108
-103 -175 -152 -207 -152 -19 0 -21 4 -16 30 4 16 18 48 32 71 26 40 27 75 2
67 -6 -3 -22 -23 -35 -45 -25 -46 -160 -154 -230 -185 -57 -26 -98 -21 -94 11
2 26 38 81 53 81 5 0 9 -7 9 -15 0 -23 30 -18 39 7 17 47 -12 78 -51 57 -12
-7 -51 -42 -87 -78 -68 -68 -140 -124 -184 -140 -38 -15 -52 7 -37 56 7 21 16
42 21 47 5 6 9 18 9 28 0 37 -31 16 -88 -60 -65 -85 -89 -108 -100 -98 -6 7 3
28 38 83 11 17 12 25 3 34 -9 9 -17 5 -35 -16 -62 -76 -218 -230 -256 -252
-52 -31 -72 -25 -72 19 0 65 20 104 93 186 139 153 329 423 394 559 31 65 39
74 72 82 196 52 241 66 245 78 3 8 -7 62 -23 121 -28 101 -132 501 -291 1112
-39 151 -94 359 -121 462 -27 103 -49 189 -49 192 0 15 -43 7 -185 -31z m335
-1966 c0 -44 -361 -567 -391 -567 -29 0 186 390 302 546 37 50 41 53 64 42 14
-6 25 -16 25 -21z m880 -372 c0 -20 -22 -65 -32 -65 -11 0 -10 37 2 61 13 22
30 25 30 4z m-1654 -460 c-4 -14 -11 -25 -16 -25 -14 0 -12 44 2 58 16 16 22
0 14 -33z m-286 -131 c0 -30 -94 -104 -133 -104 -31 0 -14 22 52 67 58 40 81
51 81 37z"/>
<path d="M1494 4930 c-161 -42 -289 -140 -335 -255 -20 -52 -23 -76 -23 -185
0 -116 4 -138 47 -300 25 -96 84 -326 132 -509 48 -184 98 -362 112 -395 56
-133 143 -235 243 -284 51 -25 64 -27 180 -27 102 0 138 4 196 22 137 44 237
131 286 253 19 47 22 73 22 185 0 130 0 130 -83 445 -46 173 -107 407 -137
520 -79 308 -129 411 -232 482 -99 68 -260 87 -408 48z m150 -350 c40 -15 64
-77 122 -309 29 -119 87 -346 128 -506 91 -348 94 -389 29 -423 -59 -32 -110
7 -141 105 -42 132 -253 959 -259 1011 -7 61 7 96 47 117 30 17 41 18 74 5z"/>
<path d="M5458 4752 c-157 -41 -249 -70 -252 -79 -8 -19 43 -216 58 -225 6 -4
17 -6 24 -3 14 5 449 119 495 129 35 8 35 24 -1 146 -25 86 -29 95 -52 96 -14
1 -136 -28 -272 -64z"/>
<path d="M520 4679 c-220 -57 -332 -169 -362 -362 -16 -106 -2 -204 73 -491
32 -127 91 -355 130 -506 81 -317 113 -393 199 -480 128 -131 307 -160 522
-86 133 47 237 137 279 244 18 46 23 77 23 157 0 91 -5 120 -57 309 -31 115
-59 212 -62 215 -10 10 -347 -77 -364 -94 -6 -6 7 -71 35 -175 25 -91 46 -191
47 -223 2 -53 -1 -61 -26 -83 -49 -42 -104 -29 -136 34 -10 20 -53 170 -95
332 -43 162 -100 381 -128 485 -28 105 -53 222 -55 260 -5 65 -3 72 20 94 17
16 37 23 63 23 64 0 82 -35 147 -290 13 -51 28 -97 33 -102 5 -5 75 9 164 32
188 48 200 53 200 75 0 10 -20 96 -45 192 -63 242 -119 341 -229 406 -95 56
-242 69 -376 34z"/>
<path d="M7907 4093 c-4 -3 -7 -17 -7 -30 0 -29 36 -32 45 -3 10 31 -17 55
-38 33z"/>
<path d="M6621 3769 c-34 -46 -36 -54 -19 -65 6 -4 21 5 35 22 39 48 44 61 28
74 -11 9 -20 3 -44 -31z"/>
<path d="M8953 3771 c-77 -22 -88 -31 -101 -84 -6 -23 -32 -108 -58 -187 -208
-649 -539 -1196 -1009 -1666 -344 -345 -672 -583 -1088 -789 -839 -417 -1768
-536 -2682 -344 -619 130 -1223 415 -1710 805 -49 39 -150 126 -223 193 -73
66 -137 121 -143 121 -14 0 -147 -38 -159 -45 -5 -3 -10 -12 -10 -20 0 -15
219 -222 350 -331 972 -807 2229 -1143 3484 -929 245 42 650 158 874 251 721
298 1323 758 1804 1379 347 448 617 1005 748 1542 19 76 21 95 10 108 -15 18
-9 18 -87 -4z"/>
<path d="M3781 3013 c-6 -12 -6 -25 -1 -34 12 -19 45 1 45 27 0 25 -31 30 -44
7z"/>
</g>
</svg>
